<svg width="22" height="25" viewBox="0 0 22 25" fill="none" xmlns="http://www.w3.org/2000/svg">
<path d="M16.3823 12.0272C20.1769 14.3139 21.4838 17.8722 21.8965 21.8879C21.9653 22.5683 21.9883 23.2599 21.9997 23.9515C22.0112 24.6542 21.6673 25 20.9679 25C14.3187 25 7.66952 25 1.02031 25C0.389781 25 0 24.6765 0 24.1076C0 21.2298 0.424174 18.4411 1.84573 15.8644C2.72847 14.2582 3.97806 12.9754 5.64037 12.0384C4.03538 10.2202 3.34753 8.16777 3.79464 5.82531C4.11563 4.11866 4.98691 2.70203 6.38554 1.60888C9.28597 -0.688955 13.436 -0.499327 16.1071 2.01045C18.6522 4.41983 19.363 8.66972 16.3823 12.0272ZM20.154 23.1818C20.0279 20.8951 19.6725 18.7088 18.549 16.701C17.758 15.2955 16.6689 14.1801 15.1671 13.4773C14.9607 13.3769 14.6053 13.3769 14.399 13.4773C12.1176 14.5705 9.84771 14.5705 7.56635 13.4662C7.37145 13.3658 7.02753 13.3546 6.85557 13.4662C6.17918 13.8789 5.4684 14.2805 4.90666 14.8159C2.54504 17.1137 2.02916 20.0808 1.8228 23.1818C7.95613 23.1818 14.0207 23.1818 20.154 23.1818ZM16.5084 7.11924C16.4969 4.17443 14.0092 1.78736 10.9827 1.78736C7.95613 1.79851 5.49133 4.2079 5.5028 7.16386C5.5028 10.1087 7.99052 12.5069 11.0171 12.4957C14.0436 12.4846 16.5084 10.0752 16.5084 7.11924Z" fill="#333D48"/>
</svg>
