<svg width="9" height="13" viewBox="0 0 9 13" fill="none" xmlns="http://www.w3.org/2000/svg">
<path d="M6.41201 6.50629C6.23316 6.39456 6.13448 6.34378 6.0543 6.27776C4.18559 4.7339 2.31071 3.19005 0.435825 1.65128C0.0966195 1.37704 -0.0945691 1.06726 0.0472805 0.671137C0.263139 0.0414077 1.13891 -0.202358 1.76798 0.188683C1.86666 0.249625 1.953 0.320723 2.03934 0.391821C4.19792 2.16928 6.35651 3.94674 8.51509 5.7242C9.16266 6.25744 9.16266 6.7399 8.50892 7.27821C6.338 9.06583 4.16709 10.8534 1.99617 12.6461C1.66313 12.9204 1.28692 13.0778 0.805868 12.961C0.0596153 12.7833 -0.242586 12.0774 0.219967 11.5543C0.30631 11.4578 0.404988 11.3765 0.509834 11.2902C2.36005 9.76666 4.21643 8.23804 6.06664 6.7145C6.14065 6.65356 6.24549 6.60786 6.41201 6.50629Z" fill="#3E63F6"/>
</svg>
