<svg width="9" height="13" viewBox="0 0 9 13" fill="none" xmlns="http://www.w3.org/2000/svg">
<path d="M2.58799 6.50629C2.76684 6.39456 2.86552 6.34378 2.9457 6.27776C4.81441 4.7339 6.68929 3.19005 8.56417 1.65128C8.90338 1.37704 9.09457 1.06726 8.95272 0.671137C8.73686 0.0414077 7.86109 -0.202358 7.23202 0.188683C7.13334 0.249625 7.047 0.320723 6.96066 0.391821C4.80208 2.16928 2.64349 3.94674 0.484912 5.7242C-0.162663 6.25744 -0.162663 6.7399 0.491079 7.27821C2.662 9.06583 4.83291 10.8534 7.00383 12.6461C7.33687 12.9204 7.71308 13.0778 8.19413 12.961C8.94038 12.7833 9.24259 12.0774 8.78003 11.5543C8.69369 11.4578 8.59501 11.3765 8.49017 11.2902C6.63995 9.76666 4.78357 8.23804 2.93336 6.7145C2.85935 6.65356 2.75451 6.60786 2.58799 6.50629Z" fill="#3E63F6"/>
</svg>
