<svg width="12" height="21" viewBox="0 0 12 21" fill="none" xmlns="http://www.w3.org/2000/svg">
<path d="M8.41608 10.5886C8.18133 10.4109 8.05181 10.3302 7.94658 10.2252C5.49383 7.77019 3.03299 5.31519 0.572155 2.86826C0.126938 2.43218 -0.124003 1.93956 0.0621791 1.30966C0.345499 0.308277 1.49497 -0.0793545 2.32065 0.542472C2.45016 0.63938 2.56349 0.752439 2.67682 0.865498C5.51002 3.69198 8.34322 6.51846 11.1764 9.34494C12.0264 10.1929 12.0264 10.9601 11.1683 11.8161C8.31894 14.6587 5.46955 17.5014 2.62016 20.3521C2.18303 20.7882 1.68925 21.0385 1.05785 20.8528C0.0783689 20.5701 -0.318279 19.4476 0.288835 18.6158C0.402163 18.4624 0.531681 18.3332 0.669294 18.1959C3.09775 15.7732 5.53431 13.3424 7.96277 10.9197C8.0599 10.8228 8.19752 10.7501 8.41608 10.5886Z" fill="#3E63F6"/>
</svg>
