<svg width="12" height="21" viewBox="0 0 12 21" fill="none" xmlns="http://www.w3.org/2000/svg">
<path d="M3.3969 10.3462C3.63165 10.1685 3.76116 10.0877 3.8664 9.98276C6.31914 7.52776 8.77998 5.07276 11.2408 2.62583C11.686 2.18975 11.937 1.69713 11.7508 1.06723C11.4675 0.0658457 10.318 -0.321786 9.49233 0.30004C9.36281 0.396948 9.24948 0.510007 9.13615 0.623067C6.30295 3.44955 3.46975 6.27603 0.636546 9.10251C-0.213414 9.95046 -0.213413 10.7176 0.644642 11.5737C3.49403 14.4163 6.34343 17.2589 9.19282 20.1096C9.62994 20.5457 10.1237 20.7961 10.7551 20.6103C11.7346 20.3277 12.1313 19.2052 11.5241 18.3734C11.4108 18.2199 11.2813 18.0907 11.1437 17.9534C8.71522 15.5307 6.27867 13.1 3.85021 10.6773C3.75307 10.5804 3.61546 10.5077 3.3969 10.3462Z" fill="#3E63F6"/>
</svg>
