<svg width="21" height="22" viewBox="0 0 21 22" fill="none" xmlns="http://www.w3.org/2000/svg">
<path d="M4.00436 1.63185C4.08961 0.962001 3.81683 0.0345168 4.83976 0.025929C5.87122 0.025929 5.59844 0.944825 5.65811 1.60609C8.88888 1.60609 12.0941 1.60609 15.3589 1.60609C15.3589 1.34845 15.3504 1.09941 15.3589 0.841771C15.376 0.352266 15.6914 0.00875333 16.1432 0.000165514C16.5865 -0.0084223 16.9445 0.317915 16.9701 0.80742C16.9871 1.06505 16.9701 1.32269 16.9701 1.63185C17.3622 1.63185 17.7287 1.63185 18.0868 1.63185C19.7235 1.64903 20.9936 2.88567 20.9936 4.53453C21.0021 9.38665 21.0021 14.2388 20.9936 19.0909C20.9936 20.7397 19.7235 21.9936 18.0953 21.9936C13.0232 22.0021 7.95119 22.0021 2.87914 21.9936C1.27654 21.985 0.0149178 20.7226 0.00639334 19.1081C-0.00213111 14.2388 -0.00213111 9.37806 0.00639334 4.50877C0.0149178 2.88567 1.27654 1.64903 2.88766 1.63185C3.25421 1.62326 3.62076 1.63185 4.00436 1.63185ZM1.61752 8.57939C1.61752 8.77691 1.61752 8.91432 1.61752 9.06031C1.61752 12.3065 1.61752 15.5527 1.61752 18.8075C1.61752 19.9067 2.07784 20.3619 3.16897 20.3619C8.05348 20.3619 12.9465 20.3619 17.831 20.3619C18.9307 20.3619 19.391 19.9067 19.391 18.8075C19.391 15.5613 19.391 12.3151 19.391 9.06031C19.391 8.90573 19.391 8.75115 19.391 8.57939C13.4495 8.57939 7.56759 8.57939 1.61752 8.57939ZM1.64309 6.89618C7.56759 6.89618 13.4665 6.89618 19.3825 6.89618C19.3825 6.02881 19.4081 5.17862 19.374 4.33701C19.3569 3.82174 18.9136 3.358 18.3936 3.2893C17.9419 3.23777 17.473 3.28071 16.9871 3.28071C16.9871 3.56411 16.9956 3.80457 16.9871 4.04503C16.9615 4.54312 16.595 4.90381 16.1432 4.88663C15.6999 4.86946 15.3845 4.52594 15.3675 4.02785C15.3589 3.7788 15.3675 3.52976 15.3675 3.2893C12.0941 3.2893 8.8974 3.2893 5.65811 3.2893C5.65811 3.55552 5.66663 3.79598 5.65811 4.03644C5.64106 4.52594 5.32565 4.86946 4.87386 4.88663C4.42206 4.90381 4.06403 4.54312 4.03846 4.04503C4.02994 3.79598 4.03846 3.53834 4.03846 3.27212C3.56962 3.27212 3.16044 3.24636 2.75127 3.28071C2.2057 3.32365 1.68571 3.7788 1.66014 4.31125C1.60899 5.16144 1.64309 6.02022 1.64309 6.89618Z" fill="#FF7634"/>
</svg>
