<svg width="23" height="22" viewBox="0 0 23 22" fill="none" xmlns="http://www.w3.org/2000/svg">
<path d="M11.5043 0.00348041C14.4639 0.00348041 17.4236 0.0103991 20.3832 2.10814e-05C21.4824 -0.00343824 22.3222 0.422059 22.7762 1.45294C23.2336 2.48728 22.9606 3.404 22.2232 4.2204C19.7722 6.93943 17.3383 9.66884 14.8804 12.3844C14.5971 12.6957 14.4639 13.0002 14.4708 13.4291C14.4947 14.7575 14.4674 16.0859 14.4878 17.4143C14.4947 17.8882 14.3445 18.2307 13.9758 18.5247C12.6786 19.5556 11.3951 20.6038 10.1115 21.6485C9.77699 21.9218 9.44245 22.1293 9.00209 21.9045C8.56855 21.6831 8.51735 21.2922 8.51735 20.8563C8.52418 18.4486 8.50711 16.0444 8.531 13.6367C8.53783 13.0797 8.38763 12.6715 8.00871 12.2564C5.5816 9.58927 3.18862 6.89446 0.771751 4.21694C0.0344002 3.39362 -0.231865 2.48036 0.225565 1.44602C0.682996 0.4186 1.52617 -0.00343824 2.62537 2.10814e-05C5.58501 0.0138584 8.54466 0.00348041 11.5043 0.00348041ZM10.2242 19.3342C11.0127 18.6942 11.7057 18.1131 12.4158 17.563C12.6786 17.3589 12.7878 17.141 12.7844 16.795C12.7639 15.4494 12.7503 14.1002 12.7947 12.7546C12.8049 12.4121 12.9585 12.0073 13.1804 11.7548C14.5868 10.1358 16.0274 8.55148 17.4577 6.95673C18.6389 5.63872 19.8268 4.3311 20.984 2.99234C21.1513 2.79862 21.2742 2.38696 21.182 2.19669C21.0728 1.9753 20.7007 1.88189 20.4413 1.74006C20.4003 1.71931 20.3354 1.7366 20.2842 1.7366C14.4332 1.7366 8.58221 1.7366 2.73119 1.7366C2.58782 1.7366 2.44445 1.72622 2.3079 1.75044C1.79585 1.84384 1.56713 2.37658 1.85047 2.81937C1.92557 2.94045 2.03139 3.04077 2.12356 3.14801C4.66333 5.9812 7.19626 8.81784 9.74627 11.6407C10.0945 12.0246 10.2481 12.4225 10.2412 12.9448C10.2174 14.7783 10.231 16.6117 10.231 18.4417C10.2242 18.7011 10.2242 18.9606 10.2242 19.3342Z" fill="#FF7634"/>
</svg>
