<svg width="13" height="15" viewBox="0 0 13 15" fill="none" xmlns="http://www.w3.org/2000/svg">
<path d="M1.08333 3.06345C0.866667 3.06345 0.697396 3.07008 0.534896 3.06345C0.216667 3.04357 0 2.81822 0 2.5266C0.00677083 2.23498 0.223438 2.02289 0.541667 2.00301C0.629688 1.99638 0.724479 2.00301 0.8125 2.00301C4.60417 2.00301 8.39583 2.00301 12.1875 2.00301C12.2891 2.00301 12.3906 1.99638 12.4922 2.00963C12.7901 2.03615 13 2.25486 13 2.53323C13 2.80497 12.7969 3.03694 12.499 3.06345C12.3229 3.07671 12.1401 3.06345 11.9167 3.06345C11.9167 3.21589 11.9167 3.34182 11.9167 3.46774C11.9167 6.52977 11.9167 9.58517 11.9167 12.6472C11.9167 14.0987 10.9958 15.0001 9.50625 15.0001C7.48854 15.0001 5.46406 15.0001 3.44635 15.0001C2.01094 15.0001 1.07656 14.0854 1.07656 12.6803C1.07656 9.61831 1.07656 6.56291 1.07656 3.50088C1.08333 3.36833 1.08333 3.23577 1.08333 3.06345ZM2.16667 3.07671C2.16667 3.20263 2.16667 3.30205 2.16667 3.40147C2.16667 6.49001 2.16667 9.58517 2.16667 12.6737C2.16667 13.5022 2.61354 13.933 3.46667 13.933C5.4776 13.933 7.48177 13.933 9.49271 13.933C10.4135 13.933 10.8333 13.5154 10.8333 12.6141C10.8333 9.55866 10.8333 6.49663 10.8333 3.44123C10.8333 3.32193 10.8333 3.20263 10.8333 3.07671C7.93542 3.07671 5.07135 3.07671 2.16667 3.07671Z" fill="#FF7634"/>
<path d="M6.49976 0C7.13097 0 7.76844 0 8.39966 0C8.76839 0 8.99338 0.1875 8.99963 0.4875C9.00588 0.8 8.77464 0.99375 8.38716 1C7.13097 1 5.86854 1 4.61235 1C4.22487 1 3.99363 0.80625 3.99988 0.49375C4.00613 0.18125 4.23112 0 4.62485 0C5.24982 0 5.87479 0 6.49976 0Z" fill="#FF7634"/>
<path d="M4.9982 8.47933C4.9982 9.40346 4.9982 10.3349 4.9982 11.2591C4.9982 11.7285 4.81723 11.9925 4.51146 11.9999C4.19944 12.0072 3.99976 11.7358 3.99976 11.2811C3.99976 9.40346 3.99976 7.51851 3.99976 5.6409C3.99976 5.34019 4.07464 5.06881 4.32425 5.01014C4.49274 4.97346 4.71738 5.03947 4.84843 5.15683C4.95451 5.25217 4.98572 5.50154 4.99196 5.68491C5.00444 6.62371 4.9982 7.55519 4.9982 8.47933Z" fill="#FF7634"/>
<path d="M9.00003 8.49988C9.00003 9.43317 9.00003 10.3665 9.00003 11.2998C9.00003 11.7299 8.81253 11.9924 8.51253 11.9997C8.21253 12.007 8.00628 11.7445 8.00003 11.3216C8.00003 9.44046 8.00003 7.55929 8.00003 5.67812C8.00003 5.25522 8.20003 4.99273 8.50628 5.00003C8.80628 5.00732 8.99378 5.26251 9.00003 5.69271C9.00003 5.76562 9.00003 5.83853 9.00003 5.91145C9.00003 6.77912 9.00003 7.6395 9.00003 8.49988Z" fill="#FF7634"/>
</svg>
