<svg width="14" height="14" viewBox="0 0 14 14" fill="none" xmlns="http://www.w3.org/2000/svg">
<g clip-path="url(#clip0_2_511)">
<path d="M13.5175 6.91753C13.5175 6.47214 13.4777 6.04931 13.4093 5.63776H6.97655V8.18039H10.6597C10.4947 9.01477 10.0108 9.71949 9.29349 10.1987V11.89H11.4909C12.7774 10.7117 13.5175 8.97531 13.5175 6.91753Z" fill="#4285F4"/>
<path d="M6.97655 13.5306C8.821 13.5306 10.3637 12.9217 11.4909 11.89L9.29349 10.1987C8.67868 10.6046 7.89877 10.8527 6.97655 10.8527C5.19472 10.8527 3.68615 9.6631 3.14533 8.05634H0.879623V9.7984C2.00109 12.0084 4.30665 13.5306 6.97655 13.5306Z" fill="#34A853"/>
<path d="M3.14534 8.05633C3.00302 7.65042 2.92901 7.21631 2.92901 6.76529C2.92901 6.31427 3.00871 5.88016 3.14534 5.47424V3.73218H0.879627C0.412822 4.64549 0.145264 5.67156 0.145264 6.76529C0.145264 7.85901 0.412822 8.88509 0.879627 9.7984L3.14534 8.05633Z" fill="#FBBC05"/>
<path d="M6.97655 2.67793C7.98416 2.67793 8.88362 3.02184 9.59521 3.69273L11.5421 1.76462C10.3637 0.670893 8.821 0 6.97655 0C4.30665 0 2.00109 1.5222 0.879623 3.7322L3.14533 5.47426C3.68615 3.8675 5.19472 2.67793 6.97655 2.67793Z" fill="#EA4335"/>
</g>
<defs>
<clipPath id="clip0_2_511">
<rect width="13.6626" height="13.5306" fill="white"/>
</clipPath>
</defs>
</svg>
