<svg width="16" height="16" viewBox="0 0 16 16" fill="none" xmlns="http://www.w3.org/2000/svg">
<path d="M2.63654 2.16809C2.63654 2.69383 2.63058 3.18413 2.63654 3.67443C2.64251 4.56642 3.33443 5.08034 4.21125 4.85587C4.67055 4.73773 4.99265 4.38329 5.02247 3.91072C5.04633 3.46177 5.0344 3.00691 5.04036 2.55206C5.04036 2.43392 5.04036 2.32168 5.04036 2.18581C6.82385 2.18581 8.57154 2.18581 10.361 2.18581C10.361 2.65839 10.3789 3.11915 10.355 3.57991C10.2954 4.72 11.2438 5.07444 12.1325 4.79089C12.556 4.65502 12.7469 4.35376 12.7529 3.85755C12.7588 3.30818 12.7529 2.75881 12.7529 2.19172C13.3434 2.19172 13.922 2.15628 14.4886 2.20353C14.93 2.23898 15.2342 2.64067 15.2641 3.08962C15.27 3.17822 15.27 3.26683 15.27 3.35544C15.27 7.11833 15.27 10.8812 15.27 14.6382C15.27 15.4475 14.9062 15.8137 14.089 15.8137C9.7824 15.8137 5.48176 15.8137 1.17516 15.8137C0.36991 15.8137 9.15527e-05 15.4475 9.15527e-05 14.6382C9.15527e-05 10.8694 9.15527e-05 7.0947 9.15527e-05 3.3259C9.15527e-05 2.53434 0.363946 2.174 1.16323 2.16809C1.64042 2.16809 2.1176 2.16809 2.63654 2.16809ZM14.2799 14.8213C14.2799 11.8618 14.2799 8.94366 14.2799 6.0314C9.83608 6.0314 5.42211 6.0314 1.00218 6.0314C1.00218 8.97319 1.00218 11.8914 1.00218 14.8213C5.43404 14.8213 9.84801 14.8213 14.2799 14.8213Z" fill="#3E63F6"/>
<path d="M10.85 2.66418C10.85 2.29793 10.8441 1.93759 10.85 1.57135C10.862 1.17556 11.1006 0.951089 11.5181 0.939274C11.9655 0.92746 12.2458 1.12831 12.2577 1.52409C12.2756 2.28021 12.2756 3.03633 12.2577 3.79836C12.2458 4.20005 11.9714 4.4068 11.53 4.4009C11.0946 4.39499 10.862 4.17052 10.8441 3.75701C10.8441 3.73929 10.8441 3.71566 10.8441 3.69794C10.8501 3.34941 10.85 3.0068 10.85 2.66418Z" fill="#3E63F6"/>
<path d="M4.54537 2.69959C4.54537 3.06583 4.55134 3.42617 4.54537 3.79242C4.53344 4.19411 4.29485 4.40677 3.87135 4.41268C3.41802 4.41858 3.1496 4.22365 3.14364 3.82196C3.12574 3.06583 3.12574 2.30971 3.14364 1.55359C3.15557 1.1519 3.42399 0.956961 3.87731 0.962868C4.30081 0.968776 4.53344 1.17553 4.54537 1.58312C4.5573 1.95528 4.54537 2.32743 4.54537 2.69959Z" fill="#3E63F6"/>
<path d="M8.98327 8.967C8.74468 8.967 8.50609 8.96109 8.26749 8.967C8.09451 8.97291 8.01101 8.90793 8.01101 8.73071C8.01697 8.29948 7.99908 7.86826 8.02294 7.43703C8.0289 7.35433 8.16609 7.21847 8.24363 7.21256C8.75661 7.19484 9.27555 7.20665 9.78852 7.20074C9.96747 7.20074 10.0271 7.28345 10.0271 7.45475C10.0212 7.87417 10.0212 8.29948 10.0271 8.7189C10.0271 8.89611 9.9615 8.967 9.78256 8.96109C9.51414 8.96109 9.24572 8.967 8.98327 8.967Z" fill="#3E63F6"/>
<path d="M11.882 8.967C11.6315 8.967 11.3869 8.96109 11.1364 8.967C10.9396 8.97881 10.868 8.89611 10.874 8.70708C10.8799 8.29358 10.8799 7.88007 10.874 7.47248C10.874 7.28935 10.9336 7.20074 11.1305 7.20074C11.6375 7.20665 12.1385 7.20665 12.6455 7.20074C12.8245 7.20074 12.8901 7.27163 12.8901 7.44885C12.8841 7.86826 12.8781 8.29358 12.8901 8.71299C12.896 8.91383 12.8066 8.97291 12.6217 8.96109C12.3771 8.96109 12.1266 8.967 11.882 8.967Z" fill="#3E63F6"/>
<path d="M3.29271 11.4365C3.04219 11.4365 2.79763 11.4306 2.54711 11.4365C2.3622 11.4424 2.27273 11.3715 2.27869 11.1766C2.28466 10.7572 2.28466 10.3318 2.27869 9.91242C2.27869 9.73521 2.35027 9.67023 2.52921 9.67023C3.03622 9.67613 3.54323 9.67613 4.04428 9.67023C4.21726 9.67023 4.2948 9.72339 4.2948 9.90652C4.28884 10.3259 4.28287 10.7512 4.2948 11.1707C4.30077 11.3656 4.22322 11.4365 4.03235 11.4306C3.78779 11.4306 3.54323 11.4365 3.29271 11.4365Z" fill="#3E63F6"/>
<path d="M6.17379 9.67629C6.42431 9.67629 6.66887 9.6822 6.91939 9.67629C7.09237 9.67039 7.16991 9.73537 7.16991 9.91849C7.16395 10.3497 7.16395 10.7809 7.16991 11.2122C7.16991 11.3776 7.09237 11.4425 6.93728 11.4425C6.42431 11.4425 5.90537 11.4544 5.39239 11.4307C5.30889 11.4248 5.1717 11.2949 5.16573 11.2122C5.14187 10.7691 5.14784 10.3261 5.16573 9.88895C5.1717 9.81807 5.29696 9.69992 5.3745 9.68811C5.63695 9.65857 5.90537 9.67629 6.17379 9.67629Z" fill="#3E63F6"/>
<path d="M9.01906 11.4366C8.76257 11.4366 8.50012 11.4543 8.2496 11.4248C8.16609 11.413 8.0289 11.283 8.02294 11.2062C7.99908 10.775 8.01697 10.3438 8.01101 9.91253C8.01101 9.73531 8.08855 9.67033 8.26749 9.67624C8.7745 9.68215 9.28151 9.68215 9.78256 9.67624C9.9615 9.67624 10.0331 9.74122 10.0271 9.91843C10.0212 10.3378 10.0152 10.7632 10.0271 11.1826C10.0331 11.3775 9.94361 11.4425 9.7587 11.4366C9.51414 11.4307 9.26362 11.4366 9.01906 11.4366Z" fill="#3E63F6"/>
<path d="M11.876 9.67601C12.1325 9.67601 12.389 9.68192 12.6515 9.67601C12.8065 9.6701 12.896 9.71736 12.896 9.88867C12.89 10.3317 12.89 10.7748 12.896 11.2119C12.896 11.3832 12.8125 11.4364 12.6574 11.4364C12.1444 11.4364 11.6255 11.4482 11.1125 11.4245C11.035 11.4186 10.8978 11.2828 10.8918 11.2001C10.868 10.7688 10.8859 10.3376 10.8799 9.90639C10.8799 9.72918 10.9634 9.6642 11.1364 9.67011C11.3809 9.68192 11.6255 9.67601 11.876 9.67601Z" fill="#3E63F6"/>
<path d="M3.3106 12.1453C3.56708 12.1453 3.82954 12.1275 4.08602 12.1571C4.16357 12.163 4.28286 12.287 4.28883 12.3579C4.30672 12.801 4.30672 13.244 4.28883 13.687C4.28286 13.7579 4.1576 13.882 4.08006 13.8879C3.55515 13.9056 3.03025 13.9056 2.49938 13.8879C2.4278 13.8879 2.29658 13.7579 2.29061 13.6811C2.27272 13.2381 2.27272 12.795 2.29061 12.352C2.29658 12.2811 2.42184 12.163 2.50535 12.1571C2.77376 12.1334 3.04218 12.1453 3.3106 12.1453Z" fill="#3E63F6"/>
<path d="M6.14403 12.1454C6.40051 12.1454 6.66297 12.1514 6.91945 12.1454C7.0984 12.1395 7.16401 12.2163 7.16401 12.3935C7.15805 12.8071 7.15805 13.2206 7.16401 13.6341C7.16998 13.8172 7.11033 13.9058 6.90752 13.8999C6.40051 13.894 5.8935 13.894 5.3865 13.8999C5.20755 13.8999 5.14194 13.8231 5.14194 13.6518C5.1479 13.2265 5.1479 12.8071 5.14194 12.3817C5.14194 12.1986 5.22544 12.1395 5.39842 12.1454C5.64895 12.1514 5.89947 12.1454 6.14403 12.1454Z" fill="#3E63F6"/>
<path d="M9.01896 13.8938C8.76248 13.8938 8.50002 13.8879 8.24354 13.8938C8.08249 13.8997 8.00494 13.8288 8.01091 13.6693C8.01687 13.2381 8.01687 12.8009 8.01091 12.3697C8.01091 12.2043 8.08249 12.1452 8.24354 12.1452C8.76248 12.1511 9.27545 12.1511 9.79439 12.1452C9.95544 12.1452 10.027 12.2043 10.027 12.3697C10.0211 12.8009 10.0211 13.2381 10.027 13.6693C10.027 13.8347 9.95544 13.8997 9.79439 13.8938C9.5379 13.8938 9.27545 13.8938 9.01896 13.8938Z" fill="#3E63F6"/>
<path d="M11.8881 13.8941C11.6316 13.8941 11.3692 13.8882 11.1127 13.8941C10.9516 13.9 10.8741 13.8291 10.88 13.6696C10.886 13.2384 10.886 12.8013 10.88 12.37C10.88 12.2106 10.9516 12.1397 11.1127 12.1456C11.6316 12.1515 12.1446 12.1515 12.6635 12.1456C12.8246 12.1456 12.8962 12.2046 12.8962 12.37C12.8902 12.8013 12.8902 13.2384 12.8962 13.6696C12.8962 13.835 12.8246 13.9 12.6635 13.8941C12.4011 13.8941 12.1446 13.8941 11.8881 13.8941Z" fill="#3E63F6"/>
</svg>
