<svg width="25" height="29" viewBox="0 0 25 29" fill="none" xmlns="http://www.w3.org/2000/svg">
<path d="M16.0284 25.428C15.0577 27.8725 13.6072 29.0111 11.4716 28.9999C9.3588 28.9999 7.88554 27.8279 6.9719 25.428C5.37302 25.428 3.7513 25.4169 2.14101 25.4392C1.29588 25.4503 0.59923 25.2159 0.199511 24.4346C-0.188788 23.6867 0.0282026 23.017 0.519286 22.3584C2.36942 19.8804 2.358 19.8692 2.36942 16.8108C2.38084 15.103 2.28947 13.384 2.48362 11.6873C2.96328 7.49036 6.70923 4.17519 11.0034 4.00775C15.5145 3.82916 19.4888 6.75365 20.3911 10.9841C20.5395 11.6539 20.608 12.3459 20.6195 13.0268C20.6537 15.0137 20.5966 17.0006 20.6537 18.9986C20.6651 19.4897 20.8593 20.0143 21.122 20.4385C21.5445 21.1641 22.0699 21.8226 22.5724 22.5035C23.0292 23.1174 23.1434 23.7537 22.8008 24.4346C22.4467 25.1378 21.83 25.4392 21.0306 25.4392C19.3518 25.428 17.6844 25.428 16.0284 25.428ZM21.122 23.6086C20.5624 22.8161 20.0484 22.0905 19.5345 21.365C19.032 20.6729 18.7922 19.9139 18.8036 19.0656C18.815 17.0564 18.815 15.0472 18.8036 13.038C18.8036 12.4799 18.7579 11.9218 18.6323 11.3748C17.81 7.81406 14.3838 5.39187 10.7978 5.7937C6.98332 6.22903 4.21955 9.20934 4.20813 12.9263C4.1967 14.9132 4.18528 16.9113 4.20813 18.8981C4.21955 19.8692 3.95687 20.7287 3.37443 21.4989C2.87192 22.1687 2.40368 22.8607 1.87833 23.5974C8.31952 23.6086 14.6694 23.6086 21.122 23.6086ZM8.98192 25.4503C9.38164 26.6112 10.5465 27.3256 11.7571 27.2028C12.8421 27.1023 13.8357 26.3098 13.9613 25.4503C12.3167 25.4503 10.6722 25.4503 8.98192 25.4503Z" fill="#333D48"/>
<circle cx="18" cy="7" r="7" fill="#FF7634"/>
<path d="M18.52 10H17.25V5.10449L15.7339 5.57471V4.54199L18.3838 3.59277H18.52V10Z" fill="white"/>
</svg>
