<svg width="21" height="21" viewBox="0 0 21 21" fill="none" xmlns="http://www.w3.org/2000/svg">
<path d="M4.00436 1.55768C4.08961 0.918273 3.81683 0.0329478 4.83976 0.0247504C5.87122 0.0247504 5.59844 0.901878 5.65811 1.53308C8.88888 1.53308 12.0941 1.53308 15.3589 1.53308C15.3589 1.28716 15.3504 1.04943 15.3589 0.803509C15.376 0.336254 15.6914 0.00835545 16.1432 0.000157991C16.5865 -0.00803947 16.9445 0.303464 16.9701 0.770719C16.9871 1.01664 16.9701 1.26257 16.9701 1.55768C17.3622 1.55768 17.7287 1.55768 18.0868 1.55768C19.7235 1.57407 20.9936 2.7545 20.9936 4.32842C21.0021 8.95998 21.0021 13.5915 20.9936 18.2231C20.9936 19.797 19.7235 20.9939 18.0953 20.9939C13.0232 21.002 7.95119 21.002 2.87914 20.9939C1.27654 20.9857 0.0149178 19.7806 0.00639334 18.2395C-0.00213111 13.5915 -0.00213111 8.95178 0.00639334 4.30382C0.0149178 2.7545 1.27654 1.57407 2.88766 1.55768C3.25421 1.54948 3.62076 1.55768 4.00436 1.55768ZM1.61752 8.18942C1.61752 8.37796 1.61752 8.50912 1.61752 8.64848C1.61752 11.7471 1.61752 14.8458 1.61752 17.9526C1.61752 19.0019 2.07784 19.4363 3.16897 19.4363C8.05348 19.4363 12.9465 19.4363 17.831 19.4363C18.9307 19.4363 19.391 19.0019 19.391 17.9526C19.391 14.854 19.391 11.7553 19.391 8.64848C19.391 8.50092 19.391 8.35337 19.391 8.18942C13.4495 8.18942 7.56759 8.18942 1.61752 8.18942ZM1.64309 6.58272C7.56759 6.58272 13.4665 6.58272 19.3825 6.58272C19.3825 5.75477 19.4081 4.94323 19.374 4.13987C19.3569 3.64803 18.9136 3.20536 18.3936 3.13978C17.9419 3.0906 17.473 3.13159 16.9871 3.13159C16.9871 3.4021 16.9956 3.63163 16.9871 3.86116C16.9615 4.33661 16.595 4.68091 16.1432 4.66451C15.6999 4.64812 15.3845 4.32022 15.3675 3.84477C15.3589 3.60704 15.3675 3.36931 15.3675 3.13978C12.0941 3.13978 8.8974 3.13978 5.65811 3.13978C5.65811 3.39391 5.66663 3.62343 5.65811 3.85296C5.64106 4.32022 5.32565 4.64812 4.87386 4.66451C4.42206 4.68091 4.06403 4.33661 4.03846 3.86116C4.02994 3.62343 4.03846 3.37751 4.03846 3.12339C3.56962 3.12339 3.16044 3.0988 2.75127 3.13159C2.2057 3.17257 1.68571 3.60704 1.66014 4.11528C1.60899 4.92683 1.64309 5.74658 1.64309 6.58272Z" fill="#8E9CA6"/>
</svg>
