<svg width="25" height="24" viewBox="0 0 25 24" fill="none" xmlns="http://www.w3.org/2000/svg">
<path d="M23.2068 3.94249L23.2068 3.94463C23.1854 4.77301 22.8123 5.49435 22.1683 6.12855C18.8262 9.41982 15.5049 12.7111 12.1732 16.0126L12.1422 16.0433L12.1421 16.0434C11.5435 16.6329 10.9459 17.2237 10.3483 17.8145C9.15303 18.9962 7.95761 20.178 6.75302 21.3505L23.2068 3.94249ZM23.2068 3.94249C23.1855 2.69975 22.4432 1.59025 21.3363 1.17103L21.3363 1.17102L21.3357 1.1708C20.7067 0.941765 20.1069 0.891484 19.544 1.01729C18.9812 1.14307 18.4587 1.44414 17.9832 1.9124L17.9832 1.91244C12.7925 7.03442 7.60187 12.1564 2.42164 17.2784L2.45678 17.314L2.42171 17.2784C2.27461 17.4232 2.12002 17.6058 2.06401 17.8044L2.06378 17.8052C1.68771 19.2352 1.33255 20.6651 0.987868 22.0948L23.2068 3.94249ZM21.4822 2.62153L21.4824 2.62172C21.9474 3.06956 22.1168 3.56707 22.0073 4.0991C21.8987 4.62612 21.5148 5.19538 20.8504 5.78797C20.0058 4.95617 19.161 4.1241 18.2967 3.26314C18.8874 2.63019 19.4627 2.25937 19.9959 2.14869C20.5355 2.03668 21.0386 2.18972 21.4822 2.62153ZM17.9782 8.55133C14.0124 12.467 10.0262 16.3926 6.09129 20.2676C5.82185 20.0024 5.5504 19.7361 5.27793 19.4689C4.71782 18.9196 4.15339 18.366 3.59312 17.8079C7.52815 13.9327 11.5146 10.0069 15.4703 6.10123C15.8868 6.50659 16.3058 6.9167 16.7248 7.32687C17.1434 7.73655 17.562 8.14629 17.9782 8.55133ZM18.9381 7.64814C18.0947 6.80782 17.2514 5.97712 16.4081 5.14667C16.5526 5.004 16.7032 4.85332 16.8549 4.70165L16.8592 4.69736C17.0129 4.54352 17.1677 4.38872 17.3184 4.24001C18.1617 5.08027 19.0052 5.91105 19.8583 6.75117C19.5654 7.03958 19.2395 7.36022 18.9381 7.64814ZM3.97167 20.0756C4.24928 20.3533 4.5269 20.6311 4.81328 20.9175C4.50676 20.994 4.20241 21.0705 3.89414 21.1481C3.38483 21.2762 2.86483 21.4069 2.30666 21.5446C2.40244 21.1707 2.49335 20.8115 2.5828 20.4579C2.70265 19.9842 2.81989 19.5208 2.94278 19.0465C3.29625 19.3999 3.63396 19.7377 3.97167 20.0756Z" fill="#8E9CA6" stroke="#8E9CA6" stroke-width="0.1"/>
<path d="M24.3992 21.9527C24.3073 21.8999 24.1704 21.908 24.0338 21.916C23.9843 21.9189 23.9348 21.9219 23.8875 21.9219H16.89H9.78809C9.7472 21.9219 9.70521 21.9202 9.66313 21.9186C9.52247 21.9131 9.38084 21.9076 9.27633 21.963C9.09879 22.0658 8.86902 22.2613 8.86902 22.4053C8.86902 22.5904 9.06745 22.7961 9.22411 22.9401L24.3992 21.9527ZM24.3992 21.9527C24.5768 22.0556 24.817 22.2613 24.8274 22.4258L24.3992 21.9527ZM24.4243 21.9094L24.4241 21.9094C24.3488 21.8661 24.2533 21.859 24.1622 21.8603C24.119 21.8609 24.0744 21.8635 24.0312 21.8661L24.0218 21.8666C23.9751 21.8694 23.9302 21.8719 23.8875 21.8719H23.8738H23.8602H23.8465H23.8329H23.8192H23.8056H23.7919H23.7783H23.7646H23.751H23.7373H23.7237H23.71H23.6964H23.6827H23.6691H23.6554H23.6418H23.6281H23.6145H23.6008H23.5872H23.5735H23.5599H23.5462H23.5326H23.5189H23.5053H23.4916H23.478H23.4643H23.4507H23.437H23.4233H23.4097H23.396H23.3824H23.3687H23.3551H23.3414H23.3278H23.3141H23.3004H23.2868H23.2731H23.2595H23.2458H23.2322H23.2185H23.2049H23.1912H23.1775H23.1639H23.1502H23.1366H23.1229H23.1092H23.0956H23.0819H23.0683H23.0546H23.041H23.0273H23.0136H23H22.9863H22.9727H22.959H22.9453H22.9317H22.918H22.9043H22.8907H22.877H22.8634H22.8497H22.836H22.8224H22.8087H22.7951H22.7814H22.7677H22.7541H22.7404H22.7267H22.7131H22.6994H22.6857H22.6721H22.6584H22.6448H22.6311H22.6174H22.6038H22.5901H22.5764H22.5628H22.5491H22.5354H22.5218H22.5081H22.4944H22.4808H22.4671H22.4534H22.4398H22.4261H22.4124H22.3988H22.3851H22.3714H22.3578H22.3441H22.3304H22.3168H22.3031H22.2894H22.2758H22.2621H22.2484H22.2348H22.2211H22.2074H22.1937H22.1801H22.1664H22.1527H22.1391H22.1254H22.1117H22.0981H22.0844H22.0707H22.0571H22.0434H22.0297H22.016H22.0024H21.9887H21.975H21.9614H21.9477H21.934H21.9203H21.9067H21.893H21.8793H21.8657H21.852H21.8383H21.8246H21.811H21.7973H21.7836H21.77H21.7563H21.7426H21.7289H21.7153H21.7016H21.6879H21.6742H21.6606H21.6469H21.6332H21.6196H21.6059H21.5922H21.5785H21.5649H21.5512H21.5375H21.5238H21.5102H21.4965H21.4828H21.4691H21.4555H21.4418H21.4281H21.4144H21.4008H21.3871H21.3734H21.3597H21.3461H21.3324H21.3187H21.305H21.2914H21.2777H21.264H21.2503H21.2367H21.223H21.2093H21.1956H21.182H21.1683H21.1546H21.1409H21.1273H21.1136H21.0999H21.0862H21.0726H21.0589H21.0452H21.0315H21.0179H21.0042H20.9905H20.9768H20.9632H20.9495H20.9358H20.9221H20.9084H20.8948H20.8811H20.8674H20.8537H20.8401H20.8264H20.8127H20.799H20.7854H20.7717H20.758H20.7443H20.7307H20.717H20.7033H20.6896H20.6759H20.6623H20.6486H20.6349H20.6212H20.6076H20.5939H20.5802H20.5665H20.5529H20.5392H20.5255H20.5118H20.4981H20.4845H20.4708H20.4571H20.4434H20.4298H20.4161H20.4024H20.3887H20.375H20.3614H20.3477H20.334H20.3203H20.3067H20.293H20.2793H20.2656H20.252H20.2383H20.2246H20.2109H20.1972H20.1836H20.1699H20.1562H20.1425H20.1289H20.1152H20.1015H20.0878H20.0742H20.0605H20.0468H20.0331H20.0194H20.0058H19.9921H19.9784H19.9647H19.9511H19.9374H19.9237H19.91H19.8964H19.8827H19.869H19.8553H19.8417H19.828H19.8143H19.8006H19.7869H19.7733H19.7596H19.7459H19.7322H19.7186H19.7049H19.6912H19.6775H19.6639H19.6502H19.6365H19.6228H19.6092H19.5955H19.5818H19.5681H19.5545H19.5408H19.5271H19.5134H19.4998H19.4861H19.4724H19.4587H19.4451H19.4314H19.4177H19.404H19.3904H19.3767H19.363H19.3493H19.3357H19.322H19.3083H19.2946H19.281H19.2673H19.2536H19.2399H19.2263H19.2126H19.1989H19.1852H19.1716H19.1579H19.1442H19.1306H19.1169H19.1032H19.0895H19.0759H19.0622H19.0485H19.0348H19.0212H19.0075H18.9938H18.9802H18.9665H18.9528H18.9391H18.9255H18.9118H18.8981H18.8844H18.8708H18.8571H18.8434H18.8298H18.8161H18.8024H18.7888H18.7751H18.7614H18.7477H18.7341H18.7204H18.7067H18.6931H18.6794H18.6657H18.6521H18.6384H18.6247H18.611H18.5974H18.5837H18.57H18.5564H18.5427H18.529H18.5154H18.5017H18.488H18.4744H18.4607H18.447H18.4334H18.4197H18.406H18.3924H18.3787H18.365H18.3513H18.3377H18.324H18.3104H18.2967H18.283H18.2694H18.2557H18.242H18.2284H18.2147H18.201H18.1874H18.1737H18.16H18.1464H18.1327H18.119H18.1054H18.0917H18.078H18.0644H18.0507H18.0371H18.0234H18.0097H17.9961H17.9824H17.9687H17.9551H17.9414H17.9278H17.9141H17.9004H17.8868H17.8731H17.8594H17.8458H17.8321H17.8185H17.8048H17.7911H17.7775H17.7638H17.7502H17.7365H17.7228H17.7092H17.6955H17.6819H17.6682H17.6545H17.6409H17.6272H17.6136H17.5999H17.5863H17.5726H17.5589H17.5453H17.5316H17.518H17.5043H17.4907H17.477H17.4633H17.4497H17.436H17.4224H17.4087H17.3951H17.3814H17.3678H17.3541H17.3405H17.3268H17.3131H17.2995H17.2858H17.2722H17.2585H17.2449H17.2312H17.2176H17.2039H17.1903H17.1766H17.163H17.1493H17.1357H17.122H17.1084H17.0947H17.0811H17.0674H17.0538H17.0401H17.0265H17.0128H16.9992H16.9855H16.9719H16.9582H16.9446H16.9309H16.9173H16.9036H16.89H16.8762H16.8623H16.8485H16.8347H16.8208H16.807H16.7932H16.7793H16.7655H16.7517H16.7378H16.724H16.7102H16.6963H16.6825H16.6687H16.6548H16.641H16.6272H16.6133H16.5995H16.5857H16.5718H16.558H16.5442H16.5303H16.5165H16.5027H16.4888H16.475H16.4611H16.4473H16.4335H16.4196H16.4058H16.392H16.3781H16.3643H16.3504H16.3366H16.3228H16.3089H16.2951H16.2812H16.2674H16.2536H16.2397H16.2259H16.212H16.1982H16.1844H16.1705H16.1567H16.1428H16.129H16.1151H16.1013H16.0875H16.0736H16.0598H16.0459H16.0321H16.0182H16.0044H15.9906H15.9767H15.9629H15.949H15.9352H15.9213H15.9075H15.8936H15.8798H15.8659H15.8521H15.8382H15.8244H15.8106H15.7967H15.7829H15.769H15.7552H15.7413H15.7275H15.7136H15.6998H15.6859H15.6721H15.6582H15.6444H15.6305H15.6167H15.6028H15.589H15.5751H15.5613H15.5474H15.5336H15.5197H15.5059H15.492H15.4782H15.4643H15.4505H15.4366H15.4228H15.4089H15.395H15.3812H15.3673H15.3535H15.3396H15.3258H15.3119H15.2981H15.2842H15.2704H15.2565H15.2426H15.2288H15.2149H15.2011H15.1872H15.1734H15.1595H15.1457H15.1318H15.1179H15.1041H15.0902H15.0764H15.0625H15.0487H15.0348H15.0209H15.0071H14.9932H14.9794H14.9655H14.9516H14.9378H14.9239H14.9101H14.8962H14.8824H14.8685H14.8546H14.8408H14.8269H14.8131H14.7992H14.7853H14.7715H14.7576H14.7437H14.7299H14.716H14.7022H14.6883H14.6744H14.6606H14.6467H14.6328H14.619H14.6051H14.5913H14.5774H14.5635H14.5497H14.5358H14.5219H14.5081H14.4942H14.4803H14.4665H14.4526H14.4388H14.4249H14.411H14.3972H14.3833H14.3694H14.3556H14.3417H14.3278H14.314H14.3001H14.2862H14.2724H14.2585H14.2446H14.2308H14.2169H14.203H14.1892H14.1753H14.1614H14.1475H14.1337H14.1198H14.1059H14.0921H14.0782H14.0643H14.0505H14.0366H14.0227H14.0089H13.995H13.9811H13.9672H13.9534H13.9395H13.9256H13.9118H13.8979H13.884H13.8702H13.8563H13.8424H13.8285H13.8147H13.8008H13.7869H13.7731H13.7592H13.7453H13.7314H13.7176H13.7037H13.6898H13.6759H13.6621H13.6482H13.6343H13.6205H13.6066H13.5927H13.5788H13.565H13.5511H13.5372H13.5233H13.5095H13.4956H13.4817H13.4678H13.454H13.4401H13.4262H13.4123H13.3985H13.3846H13.3707H13.3568H13.343H13.3291H13.3152H13.3013H13.2875H13.2736H13.2597H13.2458H13.2319H13.2181H13.2042H13.1903H13.1764H13.1626H13.1487H13.1348H13.1209H13.107H13.0932H13.0793H13.0654H13.0515H13.0377H13.0238H13.0099H12.996H12.9821H12.9683H12.9544H12.9405H12.9266H12.9127H12.8989H12.885H12.8711H12.8572H12.8433H12.8295H12.8156H12.8017H12.7878H12.7739H12.7601H12.7462H12.7323H12.7184H12.7045H12.6907H12.6768H12.6629H12.649H12.6351H12.6213H12.6074H12.5935H12.5796H12.5657H12.5518H12.538H12.5241H12.5102H12.4963H12.4824H12.4686H12.4547H12.4408H12.4269H12.413H12.3991H12.3853H12.3714H12.3575H12.3436H12.3297H12.3158H12.302H12.2881H12.2742H12.2603H12.2464H12.2325H12.2187H12.2048H12.1909H12.177H12.1631H12.1492H12.1353H12.1215H12.1076H12.0937H12.0798H12.0659H12.052H12.0381H12.0243H12.0104H11.9965H11.9826H11.9687H11.9548H11.941H11.9271H11.9132H11.8993H11.8854H11.8715H11.8576H11.8437H11.8299H11.816H11.8021H11.7882H11.7743H11.7604H11.7465H11.7327H11.7188H11.7049H11.691H11.6771H11.6632H11.6493H11.6354H11.6216H11.6077H11.5938H11.5799H11.566H11.5521H11.5382H11.5243H11.5105H11.4966H11.4827H11.4688H11.4549H11.441H11.4271H11.4132H11.3994H11.3855H11.3716H11.3577H11.3438H11.3299H11.316H11.3021H11.2883H11.2744H11.2605H11.2466H11.2327H11.2188H11.2049H11.191H11.1771H11.1633H11.1494H11.1355H11.1216H11.1077H11.0938H11.0799H11.066H11.0521H11.0382H11.0244H11.0105H10.9966H10.9827H10.9688H10.9549H10.941H10.9271H10.9132H10.8994H10.8855H10.8716H10.8577H10.8438H10.8299H10.816H10.8021H10.7882H10.7743H10.7605H10.7466H10.7327H10.7188H10.7049H10.691H10.6771H10.6632H10.6493H10.6354H10.6215H10.6077H10.5938H10.5799H10.566H10.5521H10.5382H10.5243H10.5104H10.4965H10.4826H10.4688H10.4549H10.441H10.4271H10.4132H10.3993H10.3854H10.3715H10.3576H10.3437H10.3298H10.316H10.3021H10.2882H10.2743H10.2604H10.2465H10.2326H10.2187H10.2048H10.1909H10.177H10.1632H10.1493H10.1354H10.1215H10.1076H10.0937H10.0798H10.0659H10.052H10.0381H10.0242H10.0103H9.99646H9.98257H9.96868H9.95478H9.94089H9.927H9.91311H9.89922H9.88533H9.87144H9.85754H9.84365H9.82976H9.81587H9.80198H9.78809C9.74822 21.8719 9.70719 21.8703 9.66489 21.8686C9.66135 21.8685 9.65781 21.8683 9.65425 21.8682C9.60863 21.8664 9.56171 21.8648 9.51582 21.8654C9.42499 21.8668 9.33159 21.8771 9.25291 21.9188L9.25289 21.9188L9.25127 21.9197C9.15933 21.973 9.05389 22.0501 8.97072 22.1334C8.92913 22.175 8.89197 22.2193 8.86492 22.264C8.83819 22.3082 8.81902 22.3565 8.81902 22.4053C8.81902 22.5144 8.87672 22.623 8.94777 22.718C9.01962 22.8142 9.11088 22.9039 9.18969 22.9764C9.24615 23.0314 9.33133 23.044 9.40646 23.0466C9.44576 23.048 9.48627 23.0466 9.52437 23.045C9.53091 23.0447 9.53736 23.0444 9.54372 23.0442C9.57511 23.0428 9.60434 23.0415 9.63143 23.0415H9.65958H9.68773H9.71588H9.74403H9.77218H9.80033H9.82848H9.85663H9.88478H9.91293H9.94108H9.96923H9.99738H10.0255H10.0537H10.0818H10.11H10.1381H10.1663H10.1944H10.2226H10.2507H10.2789H10.307H10.3352H10.3633H10.3915H10.4196H10.4478H10.4759H10.5041H10.5322H10.5604H10.5885H10.6167H10.6448H10.673H10.7011H10.7293H10.7574H10.7856H10.8137H10.8419H10.87H10.8982H10.9263H10.9545H10.9826H11.0108H11.0389H11.0671H11.0952H11.1234H11.1515H11.1797H11.2078H11.236H11.2641H11.2923H11.3204H11.3486H11.3767H11.4049H11.433H11.4612H11.4893H11.5175H11.5456H11.5738H11.6019H11.6301H11.6582H11.6864H11.7145H11.7427H11.7708H11.799H11.8271H11.8553H11.8834H11.9116H11.9397H11.9679H11.996H12.0242H12.0523H12.0805H12.1086H12.1368H12.1649H12.1931H12.2212H12.2494H12.2775H12.3057H12.3338H12.362H12.3901H12.4183H12.4464H12.4746H12.5027H12.5309H12.559H12.5872H12.6153H12.6435H12.6716H12.6998H12.7279H12.7561H12.7842H12.8124H12.8405H12.8687H12.8968H12.925H12.9531H12.9813H13.0094H13.0376H13.0657H13.0939H13.122H13.1502H13.1783H13.2065H13.2346H13.2628H13.2909H13.3191H13.3472H13.3753H13.4035H13.4316H13.4598H13.4879H13.5161H13.5442H13.5724H13.6005H13.6287H13.6568H13.685H13.7131H13.7413H13.7694H13.7976H13.8257H13.8539H13.882H13.9102H13.9383H13.9665H13.9946H14.0228H14.0509H14.0791H14.1072H14.1354H14.1635H14.1917H14.2198H14.248H14.2761H14.3043H14.3324H14.3606H14.3887H14.4169H14.445H14.4732H14.5013H14.5295H14.5576H14.5858H14.6139H14.6421H14.6702H14.6984H14.7265H14.7547H14.7828H14.811H14.8391H14.8673H14.8954H14.9236H14.9517H14.9799H15.008H15.0362H15.0643H15.0925H15.1206H15.1488H15.1769H15.2051H15.2332H15.2614H15.2895H15.3177H15.3458H15.374H15.4021H15.4303H15.4584H15.4866H15.5147H15.5429H15.571H15.5992H15.6273H15.6555H15.6836H15.7118H15.7399H15.7681H15.7962H15.8244H15.8525H15.8807H15.9088H15.937H15.9651H15.9933H16.0214H16.0496H16.0777H16.1059H16.134H16.1622H16.1903H16.2185H16.2466H16.2748H16.3029H16.3311H16.3592H16.3874H16.4155H16.4437H16.4718H16.5H16.5281H16.5563H16.5844H16.6126H16.6407H16.6689H16.697H16.7252H16.7533H16.7815H16.8096H16.8378H16.8659H16.8941H16.9222H16.9504H16.9785H17.0067H17.0348H17.063H17.0911H17.1193H17.1474H17.1756H17.2037H17.2319H17.26H17.2882H17.3163H17.3445H17.3726H17.4008H17.4289H17.4571H17.4852H17.5134H17.5415H17.5697H17.5978H17.626H17.6541H17.6823H17.7104H17.7386H17.7667H17.7949H17.823H17.8512H17.8793H17.9075H17.9356H17.9638H17.9919H18.0201H18.0482H18.0764H18.1045H18.1327H18.1608H18.189H18.2171H18.2453H18.2734H18.3016H18.3297H18.3579H18.386H18.4142H18.4423H18.4705H18.4986H18.5268H18.5549H18.5831H18.6112H18.6394H18.6675H18.6957H18.7238H18.752H18.7801H18.8083H18.8364H18.8646H18.8927H18.9209H18.949H18.9772H19.0053H19.0335H19.0616H19.0898H19.1179H19.1461H19.1742H19.2024H19.2305H19.2587H19.2868H19.315H19.3431H19.3713H19.3994H19.4276H19.4557H19.4839H19.512H19.5402H19.5683H19.5965H19.6246H19.6528H19.6809H19.7091H19.7372H19.7654H19.7935H19.8217H19.8498H19.878H19.9061H19.9342H19.9624H19.9905H20.0187H20.0468H20.075H20.1031H20.1313H20.1594H20.1876H20.2157H20.2439H20.272H20.3002H20.3283H20.3565H20.3846H20.4128H20.4409H20.4691H20.4972H20.5254H20.5535H20.5817H20.6098H20.638H20.6661H20.6943H20.7224H20.7506H20.7787H20.8069H20.835H20.8632H20.8913H20.9195H20.9476H20.9758H21.0039H21.0321H21.0602H21.0884H21.1165H21.1447H21.1728H21.201H21.2291H21.2573H21.2854H21.3136H21.3417H21.3699H21.398H21.4262H21.4543H21.4825H21.5106H21.5388H21.5669H21.5951H21.6232H21.6514H21.6795H21.7077H21.7358H21.764H21.7921H21.8203H21.8484H21.8766H21.9047H21.9329H21.961H21.9892H22.0173H22.0455H22.0736H22.1018H22.1299H22.1581H22.1862H22.2144H22.2425H22.2707H22.2988H22.327H22.3551H22.3833H22.4114H22.4396H22.4677H22.4959H22.524H22.5522H22.5803H22.6085H22.6366H22.6648H22.6929H22.7211H22.7492H22.7774H22.8055H22.8337H22.8618H22.89H22.9181H22.9463H22.9744H23.0026H23.0307H23.0589H23.087H23.1152H23.1433H23.1715H23.1996H23.2278H23.2559H23.2841H23.3122H23.3404H23.3685H23.3967H23.4248H23.453H23.4811H23.5093H23.5374H23.5656H23.5937H23.6219H23.65H23.6782H23.7063H23.7345H23.7626H23.7908H23.8189H23.8471H23.8752H23.9034H23.9315H23.9597H23.9878H24.016H24.0441C24.0734 23.0415 24.1053 23.043 24.1396 23.0446L24.151 23.0451C24.1889 23.0469 24.2292 23.0486 24.2682 23.0479C24.3427 23.0466 24.4275 23.037 24.4841 22.9882C24.5679 22.916 24.6674 22.8262 24.7448 22.7313C24.8204 22.6385 24.8838 22.5304 24.8773 22.4228L24.8773 22.4227C24.874 22.3705 24.8529 22.3189 24.8238 22.271C24.7944 22.2227 24.7552 22.1753 24.7116 22.131C24.6246 22.0426 24.5165 21.9628 24.4243 21.9094V21.9094Z" fill="#8E9CA6" stroke="#8E9CA6" stroke-width="0.1"/>
</svg>
