<svg width="15" height="12" viewBox="0 0 15 12" fill="none" xmlns="http://www.w3.org/2000/svg">
<path d="M9.16803 3.60301C10.4676 3.60301 11.7671 3.60301 13.0666 3.60301C13.724 3.60301 14.0221 3.86522 14.0221 4.42895C14.0221 6.67735 14.0221 8.93231 14.0221 11.1807C14.0221 11.7444 13.7164 12.0001 13.0589 12.0001C10.437 12.0001 7.815 12.0001 5.18539 12.0001C4.52798 12.0001 4.22986 11.7379 4.22986 11.1742C4.22986 8.92576 4.22986 6.6708 4.22986 4.4224C4.22986 3.85866 4.53563 3.60301 5.19303 3.60301C6.51548 3.59646 7.84558 3.60301 9.16803 3.60301Z" fill="#3E63F6"/>
<path d="M8.29972 1.30612C6.02343 1.30612 3.80352 1.30612 1.55543 1.30612C1.55543 3.23506 1.55543 5.14586 1.55543 7.09295C1.77389 7.09295 1.98531 7.0869 2.18969 7.09295C2.69709 7.10504 3.03537 7.35901 3.04241 7.73391C3.04946 8.10882 2.71119 8.38092 2.21083 8.39302C1.75275 8.39907 1.29468 8.40511 0.836599 8.39302C0.329191 8.38092 0.0332031 8.12696 0.0332031 7.68554C0.0332031 5.3575 0.0332031 3.02947 0.0332031 0.701434C0.0332031 0.260014 0.336238 0 0.850693 0C3.56392 0 6.27714 0 8.99036 0C9.50481 0 9.8008 0.247921 9.8149 0.68934C9.82899 1.08238 9.82899 1.47543 9.8149 1.86847C9.80785 2.2978 9.48367 2.58805 9.04674 2.582C8.6239 2.57596 8.32086 2.29175 8.29972 1.88057C8.29267 1.69916 8.29972 1.51776 8.29972 1.30612Z" fill="#3E63F6"/>
</svg>
