<svg width="24" height="23" viewBox="0 0 24 23" fill="none" xmlns="http://www.w3.org/2000/svg">
<path d="M13.6154 15.5184L13.6159 15.5179C14.3484 14.7494 14.6996 13.8176 14.6997 12.6253C14.7084 11.6906 14.3274 10.7786 13.6261 10.0151C13.521 9.89813 13.391 9.79432 13.2445 9.74734C13.0926 9.69861 12.9284 9.71327 12.7725 9.82508C12.675 9.89498 12.5808 9.99709 12.5084 10.1095C12.4365 10.2213 12.3808 10.3515 12.3705 10.4789L12.3704 10.4789L12.3703 10.4821C12.3644 10.6013 12.4188 10.7198 12.4791 10.8192C12.5338 10.9096 12.6027 10.9986 12.6614 11.0745C12.6687 11.084 12.6759 11.0932 12.6829 11.1023L12.6834 11.1029C13.4984 12.1424 13.5011 13.5464 12.6212 14.4647L12.6212 14.4647C10.8443 16.3204 9.05008 18.1498 7.24708 19.9706C6.63807 20.5776 5.89209 20.7642 5.03704 20.5856C4.34112 20.4399 3.87732 19.9598 3.39035 19.4558C3.34408 19.4079 3.2976 19.3598 3.25069 19.3117C2.62393 18.6653 2.31941 17.9874 2.32043 17.3185C2.32146 16.6496 2.62807 15.9717 3.25911 15.3252L3.2593 15.325C4.32428 14.228 5.39298 13.135 6.46056 12.0432C6.99394 11.4978 7.52705 10.9525 8.05927 10.4073C8.08248 10.3835 8.10868 10.3596 8.13752 10.3337C8.14009 10.3314 8.14268 10.329 8.14529 10.3267C8.17121 10.3034 8.19912 10.2783 8.22527 10.2526C8.28112 10.1976 8.34277 10.1271 8.3674 10.0388L8.36742 10.0388L8.36798 10.0366C8.39387 9.93493 8.42352 9.80968 8.43504 9.68695C8.44633 9.5667 8.44195 9.43332 8.38579 9.32399C8.33042 9.21621 8.22385 9.12694 8.11357 9.06564C8.00257 9.00394 7.87203 8.96177 7.75585 8.96177C7.64243 8.96177 7.52666 9.01271 7.42777 9.07326C7.3265 9.13528 7.23061 9.21508 7.15404 9.2889L7.15403 9.28889L7.15249 9.29043C6.13889 10.3113 5.13395 11.3409 4.13771 12.3703C3.9218 12.5916 3.70223 12.8113 3.48202 13.0317C2.94426 13.5699 2.40273 14.1119 1.90148 14.688C0.563046 16.2128 0.572259 18.4243 1.89261 19.9484L1.89266 19.9484C2.2387 20.3473 2.60209 20.7196 2.99141 21.0741L2.99149 21.0742C4.54992 22.4904 6.8091 22.4644 8.299 20.9652C9.89578 19.3684 11.4654 17.7437 13.0313 16.1229C13.226 15.9213 13.4207 15.7198 13.6154 15.5184Z" fill="#8E9CA6" stroke="#8E9CA6" stroke-width="0.2"/>
<path d="M10.3884 7.52352L10.3887 7.52317C12.1663 5.67561 13.9529 3.82752 15.7655 2.01447L15.7656 2.01445C17.212 0.568656 19.4532 0.533208 20.9688 1.88709C21.3847 2.25104 21.7745 2.65041 22.1297 3.0764C23.432 4.60049 23.4322 6.78449 22.1291 8.29993L22.1291 8.29995C21.8199 8.65936 21.4887 8.99529 21.1595 9.32915C21.0109 9.47985 20.8627 9.63012 20.7172 9.78194L20.7166 9.78259L16.9554 13.636C16.9375 13.6543 16.9191 13.6738 16.9001 13.694C16.8195 13.7796 16.728 13.8768 16.6194 13.9411C16.4682 14.0421 16.3084 14.0909 16.1496 14.0735C15.9893 14.056 15.8436 13.9729 15.7192 13.8356C15.5963 13.7 15.5214 13.5475 15.511 13.3855C15.5007 13.2232 15.5559 13.0637 15.6706 12.9164C15.7692 12.782 15.8893 12.6645 16.0041 12.5521C16.0456 12.5115 16.0865 12.4716 16.1253 12.4317L20.7108 7.7338C21.3819 7.04622 21.7041 6.35968 21.701 5.68277C21.698 5.00564 21.3694 4.31655 20.6936 3.62423C20.6624 3.59227 20.6314 3.56036 20.6006 3.52858C20.1237 3.0378 19.6777 2.57876 19.0088 2.42909L19.0085 2.42904C18.1464 2.2337 17.3837 2.42832 16.7658 3.04432C14.9714 4.85635 13.1858 6.67696 11.426 8.51503L11.426 8.51504C10.5687 9.41029 10.5169 10.7631 11.2536 11.7643C11.2823 11.8021 11.3133 11.8402 11.3455 11.8798L11.346 11.8805C11.3776 11.9193 11.4104 11.9596 11.4412 12.0001C11.5909 12.1864 11.6747 12.3766 11.676 12.5636C11.6773 12.7537 11.5932 12.9242 11.4396 13.067M10.3884 7.52352L11.439 13.0675C11.4392 13.0674 11.4394 13.0672 11.4396 13.067M10.3884 7.52352C9.66967 8.2778 9.32183 9.19879 9.32173 9.8532M10.3884 7.52352L10.3609 12.9383M11.4396 13.067C11.2833 13.2168 11.0954 13.2847 10.8999 13.2595C10.7074 13.2347 10.5219 13.1216 10.3609 12.9383M11.4396 13.067L10.3609 12.9383M9.32173 9.8532C9.31308 11.2973 9.66222 12.1947 10.3609 12.9383M9.32173 9.8532C9.32173 9.8531 9.32173 9.853 9.32173 9.8529L9.42173 9.8535H9.32173C9.32173 9.8534 9.32173 9.8533 9.32173 9.8532Z" fill="#8E9CA6" stroke="#8E9CA6" stroke-width="0.2"/>
</svg>
