<svg width="18" height="21" viewBox="0 0 18 21" fill="none" xmlns="http://www.w3.org/2000/svg">
<path d="M16.4677 6.34888C12.6039 6.34888 10.9518 6.34888 8.06061 6.34888C5.74233 6.34888 5.39592 6.34888 1.51879 6.34888C0.479563 6.34888 0.0132417 6.66981 -0.0134052 7.36748C-0.0400522 8.09306 0.466239 8.4419 1.51879 8.45585C1.95847 8.45585 2.21161 8.45585 2.35817 8.45585C2.49141 8.45585 2.75787 8.45585 3.23752 8.45585C4.48992 8.45585 5.72901 8.45585 6.98141 8.45585C7.32782 8.45585 7.59429 8.45585 8.92664 8.45585C11.4314 8.45585 13.9363 8.45585 16.4544 8.45585C17.5069 8.45585 18.0132 8.10702 17.9866 7.36748C17.9866 6.66981 17.5069 6.34888 16.4677 6.34888Z" fill="#8E9CA6"/>
<path d="M16.4677 12.6141C12.6039 12.6141 10.9518 12.6141 8.06061 12.6141C5.74233 12.6141 5.39592 12.6141 1.51879 12.6141C0.479563 12.6141 0.0132417 12.9351 -0.0134052 13.6327C-0.0400522 14.3583 0.466239 14.7072 1.51879 14.7211C1.95847 14.7211 2.21161 14.7211 2.35817 14.7211C2.49141 14.7211 2.75787 14.7211 3.23752 14.7211C4.48992 14.7211 5.72901 14.7211 6.98141 14.7211C7.32782 14.7211 7.59429 14.7211 8.92664 14.7211C11.4314 14.7211 13.9363 14.7211 16.4544 14.7211C17.5069 14.7211 18.0132 14.3723 17.9866 13.6327C17.9866 12.9211 17.5069 12.6141 16.4677 12.6141Z" fill="#8E9CA6"/>
<path d="M5.98216 20.9999C4.35669 20.9999 2.74455 21.0139 1.11909 20.9999C0.439595 20.986 0.0132446 20.5674 0.0132446 19.9674C0.0132446 19.3674 0.426272 18.9627 1.10577 18.9209C1.26565 18.9069 1.41221 18.9209 1.57209 18.9209C4.51658 18.9209 7.47438 18.9209 10.4189 18.9209C10.5788 18.9209 10.7253 18.9209 10.8852 18.9209C11.5647 18.9627 11.991 19.3534 11.991 19.9674C11.991 20.5674 11.578 20.9999 10.8985 21.0139C9.27305 21.0139 7.63427 20.9999 5.98216 20.9999Z" fill="#8E9CA6"/>
<path d="M5.95533 2.09302C4.39648 2.09302 2.85096 2.09302 1.29211 2.09302C0.506029 2.09302 0.0530315 1.71628 0.0263846 1.07442C-0.000262307 0.418605 0.479382 0 1.29211 0C4.44977 0 7.59411 0 10.7518 0C11.5379 0 11.9909 0.376744 12.0175 1.0186C12.0441 1.68837 11.5645 2.09302 10.7518 2.09302C9.13963 2.10698 7.54082 2.09302 5.95533 2.09302Z" fill="#8E9CA6"/>
</svg>
