<svg width="13" height="10" viewBox="0 0 13 10" fill="none" xmlns="http://www.w3.org/2000/svg">
<path d="M2.18287 5.49204C2.28617 5.49204 2.3949 5.49204 2.50363 5.49204C4.2705 5.49204 6.03738 5.49204 7.80426 5.49204C7.90211 5.49204 8.00541 5.49658 8.10327 5.48294C8.40771 5.44202 8.6143 5.24194 8.60886 4.9964C8.60343 4.75995 8.40771 4.56897 8.11414 4.52804C8.01628 4.5144 7.91299 4.51895 7.81513 4.51895C6.04825 4.51895 4.28138 4.51895 2.5145 4.51895C2.40577 4.51895 2.29704 4.51895 2.18831 4.51895C1.77513 3.36853 1.36739 2.23174 0.97596 1.09496C0.861793 0.763018 0.921595 0.440172 1.24779 0.194627C1.56854 -0.0372768 1.9491 -0.0463711 2.31879 0.0854957C2.81351 0.267381 3.29736 0.476549 3.78122 0.676623C6.49949 1.81341 9.21776 2.95019 11.936 4.09152C12.1372 4.17337 12.3329 4.2825 12.4906 4.40982C12.9037 4.75085 12.9037 5.24649 12.496 5.58753C12.3438 5.71485 12.1589 5.81943 11.9686 5.90128C8.84807 7.21085 5.72206 8.51588 2.60149 9.82091C2.51994 9.85274 2.43839 9.88911 2.35684 9.91185C1.97085 10.0346 1.58485 10.0528 1.25866 9.81181C0.921595 9.56627 0.867229 9.23433 0.981397 8.89329C1.27497 8.03388 1.58485 7.18357 1.8893 6.32416C1.98172 6.06498 2.07414 5.79669 2.18287 5.49204Z" fill="white"/>
</svg>
