<svg width="24" height="24" viewBox="0 0 24 24" fill="none" xmlns="http://www.w3.org/2000/svg">
<path d="M24 11.9015C23.9906 18.626 18.6375 24.0094 11.9719 24C5.31564 23.9812 -0.00936264 18.5697 1.23599e-05 11.8452C0.00938736 5.30832 5.40001 0 12 0C18.6375 0 24.0094 5.32708 24 11.9015ZM11.9625 22.0492C16.9781 22.0961 21.9469 18.6542 22.0969 11.9484C22.2281 6.44314 17.5875 1.87573 12.0375 1.86635C6.47814 1.85697 1.81876 6.36811 1.90314 11.8828C1.99689 18.476 6.86251 22.0586 11.9625 22.0492Z" fill="#8E9CA6"/>
<path d="M14.9343 16.6939C14.6905 16.6939 14.4468 16.6001 14.2687 16.4125L10.6499 12.7455V6.73377C10.6499 6.21794 11.0718 5.7959 11.5874 5.7959C12.103 5.7959 12.5249 6.21794 12.5249 6.73377V11.9764L15.5999 15.0995C15.9655 15.4653 15.9562 16.0655 15.5905 16.4219C15.4124 16.6001 15.1687 16.6939 14.9343 16.6939Z" fill="#8E9CA6"/>
</svg>
