<svg width="19" height="24" viewBox="0 0 19 24" fill="none" xmlns="http://www.w3.org/2000/svg">
<g clip-path="url(#clip0_2_1071)">
<path d="M-0.000812797 8.88092C0.0893628 4.41731 3.96691 0.360324 9.07987 0.018391C13.7961 -0.295818 18.1606 3.40075 18.9 8.28023C19.1615 10.0176 18.8459 11.6349 18.1155 13.1874C16.8981 15.7658 15.2118 18.0115 13.3812 20.1462C12.3442 21.3476 11.2531 22.4936 10.162 23.6395C9.72012 24.1016 9.29629 24.1108 8.87247 23.6765C6.03194 20.8116 3.37176 17.7897 1.39691 14.2132C0.594346 12.7716 -0.0639357 11.256 -0.000812797 8.88092ZM9.56682 22.0777C9.7111 21.8651 9.80128 21.6988 9.9185 21.5509C11.208 20.0446 12.5336 18.5752 13.778 17.0319C14.9774 15.5348 16.0234 13.9267 16.7989 12.1524C17.2949 11.0249 17.4933 9.86052 17.3039 8.64065C16.5825 4.14007 12.8853 1.27523 8.44864 1.76502C4.94081 2.15316 1.90189 5.41539 1.63137 9.01955C1.51414 10.5906 2.0101 11.9676 2.74053 13.2891C4.51699 16.5328 6.92467 19.2683 9.56682 22.0777Z" fill="#8E9CA6"/>
<path d="M9.54937 5.60016C11.8038 5.61864 13.5983 7.5039 13.5802 9.8235C13.5622 12.1154 11.6775 14.0006 9.45017 13.9637C7.19578 13.9267 5.40129 12.0414 5.41932 9.73108C5.43736 7.42072 7.28596 5.57244 9.54937 5.60016ZM9.50428 7.27286C8.16066 7.27286 7.06954 8.36335 7.0515 9.73108C7.03347 11.1173 8.14263 12.2725 9.48624 12.2725C10.8299 12.2817 11.948 11.1265 11.939 9.74032C11.939 8.38183 10.8479 7.2821 9.50428 7.27286Z" fill="#8E9CA6"/>
</g>
<defs>
<clipPath id="clip0_2_1071">
<rect width="19" height="24" fill="white"/>
</clipPath>
</defs>
</svg>
