<svg width="28" height="28" viewBox="0 0 28 28" fill="none" xmlns="http://www.w3.org/2000/svg">
<path d="M14.015 0C21.7222 0 28.01 6.31 28 14.03C27.99 21.73 21.7022 28 14.015 28C6.28775 28 0 21.72 0 14C0 6.28 6.28775 0 14.015 0ZM14.055 15.5C14.1449 15.59 14.2749 15.69 14.3849 15.81C15.3745 16.8 16.3641 17.79 17.3538 18.78C17.9536 19.38 18.5434 19.45 19.0032 19C19.473 18.54 19.4131 17.94 18.8133 17.35C17.8236 16.36 16.824 15.38 15.8243 14.41C15.6944 14.29 15.4145 14.12 15.2545 14.03C15.2845 13.95 15.3345 13.92 15.4245 13.9C15.6344 13.73 15.8443 13.58 16.0343 13.39C16.9839 12.46 17.9336 11.52 18.8832 10.58C19.3831 10.08 19.4231 9.46 19.0032 9.03C18.5734 8.59 17.9636 8.62 17.4538 9.12C16.5241 10.03 15.6144 10.95 14.6947 11.88C14.4748 12.1 14.2949 12.36 14.075 12.61C13.855 12.4 13.7251 12.29 13.6151 12.18C12.6155 11.18 11.6158 10.17 10.6062 9.18C10.0964 8.67 9.42663 8.68 9.02677 9.17C8.6769 9.61 8.72688 10.14 9.18672 10.6C10.1864 11.61 11.186 12.6 12.1856 13.61C12.3056 13.73 12.4256 13.87 12.6155 14.08C12.0057 14.65 11.4259 15.18 10.8661 15.73C10.2463 16.34 9.63655 16.95 9.04677 17.58C8.62691 18.03 8.6569 18.62 9.05676 19.01C9.44662 19.38 10.0164 19.38 10.4563 18.99C10.5962 18.87 10.7162 18.73 10.8461 18.6C11.9057 17.59 12.9554 16.57 14.055 15.5Z" fill="#FF7634"/>
</svg>
