<svg width="15" height="15" viewBox="0 0 15 15" fill="none" xmlns="http://www.w3.org/2000/svg">
<path d="M1.13965 15C0.407425 15 -0.0729156 14.4612 0.00909395 13.7936C0.102819 12.9972 0.249263 12.2124 0.307842 11.416C0.354704 10.7659 0.653455 10.3033 1.10451 9.85238C4.23844 6.74857 7.34895 3.62135 10.4712 0.505834C11.1448 -0.167632 11.7482 -0.167632 12.416 0.499978C13.1365 1.21444 13.8511 1.93475 14.5658 2.65507C15.1457 3.24069 15.1457 3.88488 14.5599 4.47636C11.3264 7.709 8.08703 10.9416 4.85351 14.1801C4.52548 14.5081 4.13886 14.6135 3.69952 14.6662C2.82085 14.7658 1.94217 14.8946 1.13965 15ZM8.91299 4.16012C8.8837 4.18355 8.84269 4.20697 8.8134 4.24211C6.51714 6.53189 4.22673 8.81582 1.94218 11.1115C1.88946 11.1642 1.83088 11.2344 1.82502 11.2989C1.72544 12.0075 1.63171 12.7219 1.53798 13.4715C2.22921 13.3837 2.88529 13.3076 3.5355 13.2021C3.69367 13.1787 3.8694 13.0909 3.9807 12.9796C6.20667 10.7659 8.42678 8.54058 10.6469 6.32693C10.7231 6.25079 10.8285 6.2098 10.9105 6.16295C10.1958 5.44263 9.55735 4.80431 8.91299 4.16012ZM10.0143 3.09429C10.641 3.7209 11.2795 4.36509 11.9005 4.99171C12.3808 4.51149 12.867 4.02543 13.3356 3.55107C12.7089 2.92446 12.0704 2.28613 11.4436 1.65951C10.9808 2.12801 10.5005 2.60822 10.0143 3.09429Z" fill="#333D48"/>
</svg>
