<svg width="29" height="19" viewBox="0 0 29 19" fill="none" xmlns="http://www.w3.org/2000/svg">
<path d="M21.5819 18.6716L21.5817 18.6716C21.3649 18.6813 21.1954 18.6121 21.0724 18.4607C20.9554 18.3166 20.8887 18.1077 20.8457 17.8542M21.5819 18.6716L20.9443 17.8375M21.5819 18.6716C21.7867 18.6621 21.9554 18.5864 22.0667 18.4318C22.1747 18.2819 22.2177 18.0727 22.209 17.8175L21.5819 18.6716ZM20.8457 17.8542L20.9443 17.8375M20.8457 17.8542C20.8457 17.8542 20.8457 17.8542 20.8457 17.8542L20.9443 17.8375M20.8457 17.8542C20.8206 17.7066 20.797 17.5584 20.7735 17.4104C20.6691 16.754 20.5651 16.1003 20.3283 15.5118M20.9443 17.8375C20.9196 17.6924 20.8964 17.546 20.873 17.399C20.7686 16.742 20.6624 16.0743 20.421 15.4743M20.3283 15.5118C20.3284 15.5119 20.3284 15.512 20.3285 15.5121L20.421 15.4743M20.3283 15.5118C19.2236 12.8043 16.3072 11.2261 13.501 11.7242L13.5009 11.7242C10.4818 12.2565 8.32271 14.6665 8.15655 17.6573L8.15649 17.6584C8.15398 17.696 8.1522 17.7357 8.15036 17.7767C8.14647 17.8637 8.14233 17.9561 8.13051 18.0448L8.13017 18.0473L8.13014 18.0473C8.09787 18.2501 8.01537 18.4176 7.88429 18.5296C7.75204 18.6426 7.58037 18.6904 7.38845 18.6712L7.38658 18.671L7.38658 18.671C7.19007 18.6476 7.03688 18.573 6.93337 18.4446C6.83139 18.3181 6.78813 18.1523 6.7836 17.9665L6.78356 17.9648C6.77501 16.8174 7.04058 15.731 7.51864 14.698L7.51902 14.6972L7.51902 14.6972L7.51912 14.697C7.58228 14.5637 7.6455 14.4302 7.71845 14.2773C6.84664 13.9287 5.99818 13.9143 5.13892 14.1609C3.4929 14.6383 2.34799 16.1117 2.2656 17.8338L2.26559 17.834C2.25244 18.097 2.19285 18.3097 2.07211 18.4569C1.94742 18.6088 1.76967 18.6764 1.55582 18.6717L1.5536 18.6716L1.5536 18.6716C1.33861 18.6621 1.16411 18.5789 1.04932 18.4177C0.937729 18.2609 0.892305 18.044 0.901055 17.7839C0.987466 14.2201 4.65209 11.7373 8.07327 12.9578C8.14487 12.9831 8.27121 13.0273 8.37982 13.0653L8.51958 13.1141C8.53943 13.094 8.56509 13.0678 8.59475 13.0373C8.66608 12.9638 8.76026 12.8655 8.85217 12.7652C11.8885 9.42967 17.2326 9.47267 20.2258 12.8507L20.226 12.8509C20.2876 12.9208 20.3706 13.008 20.439 13.0784C20.4645 13.1047 20.4877 13.1284 20.5069 13.1479M20.3283 15.5118C20.3283 15.5118 20.3283 15.5117 20.3283 15.5116L20.421 15.4743M20.421 15.4743L20.5069 13.1479M2.16571 17.829C2.14039 18.3354 1.93783 18.5802 1.55804 18.5717C1.17825 18.5548 0.984135 18.2848 1.00101 17.7868C1.08541 14.2927 4.68078 11.8536 8.03982 13.0521C8.1833 13.1027 8.54621 13.2293 8.54621 13.2293C8.54621 13.2293 8.74033 13.0352 8.92601 12.8326C11.9221 9.54111 17.197 9.58331 20.151 12.917C20.2776 13.0605 20.4886 13.2715 20.4886 13.2715C20.4886 13.2715 20.7333 13.1365 20.8599 13.0858L2.16571 17.829ZM2.16571 17.829C2.25011 16.0651 3.42324 14.5544 5.11121 14.0649C5.9924 13.8119 6.86571 13.8272 7.76163 14.1869L2.16571 17.829ZM20.5069 13.1479C20.5282 13.1365 20.5534 13.1231 20.5806 13.109C20.6574 13.069 20.7543 13.0204 20.8228 12.993L20.8252 12.992L20.8252 12.9921C24.1697 11.754 27.7125 13.9728 28.0825 17.5142M20.5069 13.1479L26.8353 17.9725L26.7353 17.9748C26.7399 18.1731 26.7957 18.345 26.9132 18.4703C27.0313 18.5961 27.1999 18.6623 27.4045 18.6716C27.6045 18.6813 27.7792 18.6124 27.904 18.4799C28.0277 18.3487 28.0953 18.1628 28.1 17.9493L28.1 17.9493V17.9472V17.9447C28.1 17.803 28.1 17.6632 28.0825 17.5142M28.0825 17.5142C28.0825 17.5144 28.0826 17.5146 28.0826 17.5148L27.9831 17.5252L28.0824 17.5135C28.0825 17.5137 28.0825 17.5139 28.0825 17.5142ZM22.13 16.8759C21.9466 16.1559 21.7358 15.4465 21.516 14.7065C21.4697 14.5509 21.4231 14.3939 21.3762 14.2351C21.4077 14.2205 21.4445 14.2049 21.4794 14.1944L21.4794 14.1944L21.4823 14.1935C23.2597 13.601 25.2695 14.3749 26.1997 16.0132L22.2058 17.6675C22.2012 17.4112 22.1963 17.134 22.13 16.8759ZM22.13 16.8759L22.033 16.9006L22.1299 16.8757C22.1299 16.8758 22.1299 16.8759 22.13 16.8759ZM7.60945 14.7399C7.67329 14.6051 7.73714 14.4704 7.81101 14.3155L7.60939 14.74L7.60945 14.7399Z" fill="#FF7634" stroke="#FF7634" stroke-width="0.2"/>
<path d="M10.286 5.11903L10.286 5.11941C10.3033 7.41917 12.1877 9.29509 14.4878 9.29509C16.8129 9.29509 18.7064 7.41084 18.7064 5.09334C18.7064 2.77591 16.8129 0.891385 14.4874 0.90003C12.1622 0.908674 10.2774 2.80163 10.286 5.11903ZM11.6592 5.09334C11.6592 3.53685 12.9224 2.27288 14.4883 2.26472C16.0459 2.25657 17.3254 3.50423 17.3417 5.06063C17.358 6.63392 16.0862 7.92225 14.5126 7.9304C12.9391 7.93855 11.6592 6.66673 11.6592 5.09334Z" fill="#FF7634" stroke="#FF7634" stroke-width="0.2"/>
<path d="M6.35979 11.6498H6.36032C8.02755 11.6498 9.38894 10.2885 9.38894 8.62123C9.38894 6.95456 8.02811 5.58417 6.36876 5.58417C4.70996 5.58417 3.34014 6.954 3.34014 8.61279C3.34014 10.2713 4.70114 11.6411 6.35979 11.6498ZM8.03268 8.61279C8.03268 9.53645 7.26756 10.2931 6.35275 10.2852C5.43761 10.2772 4.68843 9.51235 4.69639 8.59678C4.70434 7.68284 5.48467 6.93294 6.39233 6.94042C7.30047 6.96479 8.03268 7.71418 8.03268 8.61279Z" fill="#FF7634" stroke="#FF7634" stroke-width="0.2"/>
<path d="M22.7163 5.58412C21.0484 5.58427 19.6964 6.95479 19.6964 8.62118C19.6964 10.2885 21.0664 11.6501 22.7255 11.6414C24.3923 11.6326 25.7539 10.263 25.7452 8.60377C25.7365 6.94588 24.3673 5.57553 22.7163 5.58412ZM22.7163 5.58412C22.7162 5.58412 22.7161 5.58412 22.716 5.58412L22.7166 5.68412V5.58412C22.7165 5.58412 22.7164 5.58412 22.7163 5.58412ZM22.7166 10.2851C21.8172 10.2851 21.0601 9.54371 21.0442 8.64475C21.0283 7.73819 21.7855 6.95677 22.7005 6.94881C23.6241 6.94085 24.3807 7.68949 24.3889 8.60473C24.3887 9.52864 23.6315 10.2851 22.7166 10.2851Z" fill="#FF7634" stroke="#FF7634" stroke-width="0.2"/>
</svg>
